# xmcd
#
# Track frame offsets:
#	180
#	12665
#	24731
#	39131
#	54314
#	67311
#	80367
#	91661
#	104789
#	117057
#	129668
#	142888
#	156907
#	168695
#	197545
#	209025
#
# Disc length: 2943 seconds
#
# Revision: 0
# Processed by: cddbd v1.5.2PL0 Copyright (c) Steve Scherf et al.
# Submitted via: dBpowerAMP V4.0
#
DISCID=e10b7d10
DTITLE=Various Artist - Discover the Blues
DYEAR=1900
DGENRE=Blues
TTITLE0=Brownie Mc Ghee - Be Good to Me
TTITLE1=Peter Chapman - Blues at Midnight
TTITLE2=Big Joe Williams - Break'em on Down
TTITLE3=Muddy Waters - Country Blues
TTITLE4=Brownie Mc Ghee - Back Home Blues
TTITLE5=Muddy Waters - Burr Clover Farm Blues
TTITLE6=John Lee Williamson - Black Panther Blues
TTITLE7=Dr Clayton - '41 Blues
TTITLE8=John Lee Williamson - Check up on my Baby Blues
TTITLE9=Sammy Price - Boogin with "Mezz"
TTITLE10=Big Bill Broonzy - Big Billy Blues
TTITLE11=Big Boy Crodup - Cry your Blues away
TTITLE12=Lightning Hopkins - Can't get that Woman out of my Mind
TTITLE13=John Lee Hooker - Call it the Night
TTITLE14=Sonny Terry - Crow Jane Blues
TTITLE15=John Lee Hooker - Boogie Awhile
EXTD=
EXTT0=
EXTT1=
EXTT2=
EXTT3=
EXTT4=
EXTT5=
EXTT6=
EXTT7=
EXTT8=
EXTT9=
EXTT10=
EXTT11=
EXTT12=
EXTT13=
EXTT14=
EXTT15=
PLAYORDER=
